<svg width="400" height="150" viewBox="0 0 316 117" fill="none" xmlns="http://www.w3.org/2000/svg">
  <path d="M8.5 8.5L30 8.5L33.5 31L12 31L8.5 8.5Z" fill="#F25C69" stroke="#F25C69" stroke-width="1"/>
  <path d="M43.1667 8.5L64.6667 8.5L68.1667 31L46.6667 31L43.1667 8.5Z" fill="#73168C" stroke="#73168C" stroke-width="1"/>
  <path d="M77.8333 8.5L99.3333 8.5L102.833 31L81.3333 31L77.8333 8.5Z" fill="#f4a949" stroke="#f4a949" stroke-width="1"/>
  <path d="M112.5 8.5L134 8.5L137.5 31L116 31L112.5 8.5Z" fill="#E0E0E0" stroke="#BDBDBD" stroke-width="1"/>
  <path d="M147.167 8.5L168.667 8.5L172.167 31L150.667 31L147.167 8.5Z" fill="#F25C69" stroke="#F25C69" stroke-width="1"/>
  <path d="M181.833 8.5L203.333 8.5L206.833 31L185.333 31L181.833 8.5Z" fill="#73168C" stroke="#73168C" stroke-width="1"/>
  <path d="M216.5 8.5L238 8.5L241.5 31L220 31L216.5 8.5Z" fill="#73168C" stroke="#73168C" stroke-width="1"/>
  <path d="M251.167 8.5L272.667 8.5L276.167 31L254.667 31L251.167 8.5Z" fill="#f4a949" stroke="#f4a949" stroke-width="1"/>
  <path d="M8.5 52.5L29.5 52.5L32.5 76L11.5 76L8.5 52.5Z" fill="#73168C" stroke="#73168C" stroke-width="1"/>
  <path d="M43.1667 52.5L64.1667 52.5L67.1667 76L46.1667 76L43.1667 52.5Z" fill="#4FD1C5" stroke="#4FD1C5" stroke-width="1"/>
  <path d="M77.8333 52.5L98.8333 52.5L101.833 76L80.8333 76L77.8333 52.5Z" fill="#F25C69" stroke="#F25C69" stroke-width="1"/>
  <path d="M112.5 52.5L133.5 52.5L136.5 76L115.5 76L112.5 52.5Z" fill="#E0E0E0" stroke="#BDBDBD" stroke-width="1"/>
  <path d="M147.167 52.5L168.167 52.5L171.167 76L150.167 76L147.167 52.5Z" fill="#E0E0E0" stroke="#BDBDBD" stroke-width="1"/>
  <path d="M181.833 52.5L202.833 52.5L205.833 76L184.833 76L181.833 52.5Z" fill="#f4a949" stroke="#f4a949" stroke-width="1"/>
  <path d="M216.5 52.5L237.5 52.5L240.5 76L219.5 76L216.5 52.5Z" fill="#4FD1C5" stroke="#4FD1C5" stroke-width="1"/>
  <path d="M251.167 52.5L272.167 52.5L275.167 76L254.167 76L251.167 52.5Z" fill="#E0E0E0" stroke="#BDBDBD" stroke-width="1"/>
  <path d="M8.5 96.5L29.5 96.5L32.5 120L11.5 120L8.5 96.5Z" fill="#F25C69" stroke="#F25C69" stroke-width="1"/>
  <path d="M43.1667 96.5L173.667 96.5L177.667 120L47.1667 120L43.1667 96.5Z" fill="#f4a949" stroke="#f4a949" stroke-width="1"/>
  <path d="M208.333 96.5L229.333 96.5L232.833 120L211.833 120L208.333 96.5Z" fill="#E0E0E0" stroke="#BDBDBD" stroke-width="1"/>
  <path d="M243 96.5L264 96.5L267.5 120L246.5 120L243 96.5Z" fill="#F25C69" stroke="#F25C69" stroke-width="1"/>
  <path d="M277.667 96.5L308.167 96.5L312.167 120L281.667 120L277.667 96.5Z" fill="#4FD1C5" stroke="#4FD1C5" stroke-width="1"/>
</svg>
