<svg role="img" aria-label="Site Logo" width="500" height="492" viewBox="0 0 500 492" fill="none" xmlns="http://www.w3.org/2000/svg">
<g filter="url(#filter0_i_3_6)">
<path d="M485 15H366.5V401L256 301L149.5 401V286C149.5 258.386 127.114 236 99.5 236H15C15 554 485 557.5 485 242.5V15Z" fill="url(#paint0_linear_3_6)"/>
</g>
<path d="M485 15H366.5V401L256 301L149.5 401V286C149.5 258.386 127.114 236 99.5 236H15C15 554 485 557.5 485 242.5V15Z" stroke="url(#paint1_linear_3_6)" stroke-width="30"/>
<defs>
<filter id="filter0_i_3_6" x="0" y="0" width="500" height="495.64" filterUnits="userSpaceOnUse" color-interpolation-filters="sRGB">
<feFlood flood-opacity="0" result="BackgroundImageFix"/>
<feBlend mode="normal" in="SourceGraphic" in2="BackgroundImageFix" result="shape"/>
<feColorMatrix in="SourceAlpha" type="matrix" values="0 0 0 0 0 0 0 0 0 0 0 0 0 0 0 0 0 0 127 0" result="hardAlpha"/>
<feOffset dy="4"/>
<feGaussianBlur stdDeviation="2"/>
<feComposite in2="hardAlpha" operator="arithmetic" k2="-1" k3="1"/>
<feColorMatrix type="matrix" values="0 0 0 0 0 0 0 0 0 0 0 0 0 0 0 0 0 0 0.25 0"/>
<feBlend mode="normal" in2="shape" result="effect1_innerShadow_3_6"/>
</filter>
<linearGradient id="paint0_linear_3_6" x1="250" y1="15" x2="250" y2="476.64" gradientUnits="userSpaceOnUse">
<stop stop-color="#4FD1C5"/>
<stop offset="1" stop-color="#F4A949"/>
</linearGradient>
<linearGradient id="paint1_linear_3_6" x1="250" y1="15" x2="250" y2="476.64" gradientUnits="userSpaceOnUse">
<stop stop-color="#4FD1C5"/>
<stop offset="1" stop-color="#F4A949"/>
</linearGradient>
</defs>
</svg>
